<?xml version="1.0" encoding="UTF-8" standalone="no"?><!-- Generator: Gravit.io --><svg xmlns="http://www.w3.org/2000/svg" xmlns:xlink="http://www.w3.org/1999/xlink" style="isolation:isolate" viewBox="0 0 512 512" width="512pt" height="512pt"><defs><clipPath id="_clipPath_hqs9S1ZMLEHSgvgJYnMdEe0n1rdP3J70"><rect width="512" height="512"/></clipPath></defs><g clip-path="url(#_clipPath_hqs9S1ZMLEHSgvgJYnMdEe0n1rdP3J70)"><circle vector-effect="non-scaling-stroke" cx="256" cy="256" r="256" fill="rgb(0,0,0)"/><g><path d=" M 82.182 263.582 C 82.069 261.034 82.012 258.485 82.012 255.909 C 82.012 243.904 83.173 232.323 85.466 220.941 C 87.646 209.786 90.987 199.026 95.489 188.494 C 95.489 188.38 95.603 188.182 95.687 188.069 C 100.161 177.536 105.597 167.711 111.77 158.424 C 117.914 149.138 125.021 140.587 132.863 132.744 C 140.678 124.816 149.257 117.822 158.544 111.678 C 167.831 105.421 177.741 100.098 188.189 95.596 C 198.835 91.009 209.792 87.668 221.061 85.375 C 232.273 83.11 243.967 81.949 255.972 81.949 C 267.977 81.949 279.557 83.11 290.939 85.403 C 302.095 87.583 312.854 90.924 323.387 95.426 C 323.5 95.426 323.698 95.54 323.811 95.625 C 334.259 100.098 344.169 105.534 353.456 111.707 C 362.743 117.851 371.294 124.958 379.137 132.772 C 387.064 140.587 394.058 149.166 400.23 158.453 C 406.488 167.74 411.811 177.649 416.313 188.097 C 420.899 198.743 424.24 209.701 426.534 220.97 C 428.827 232.238 429.988 243.932 429.988 255.937 C 429.988 258.514 429.931 261.062 429.818 263.61 C 314.241 263.582 197.985 263.582 82.182 263.582 L 82.182 263.582 Z  M 97.443 248.292 L 145.548 248.292 C 147.332 224.509 155.26 200.612 169.332 176.489 L 118.423 176.489 C 115.196 182.123 112.279 187.956 109.646 194.128 C 109.533 194.241 109.533 194.326 109.448 194.44 C 105.484 203.925 102.341 213.75 100.359 223.971 C 98.802 231.899 97.783 239.94 97.443 248.292 L 97.443 248.292 Z  M 128.333 161.256 L 179.156 161.256 C 193.653 140.389 212.765 119.408 236.548 98.343 C 232.273 98.852 228.083 99.503 224.034 100.325 C 213.699 102.42 203.789 105.449 194.191 109.612 C 184.479 113.774 175.419 118.7 166.953 124.335 C 158.487 129.969 150.786 136.34 143.566 143.531 C 138.045 149.053 132.92 154.914 128.333 161.171 L 128.333 161.256 L 128.333 161.256 Z  M 275.395 98.343 C 299.292 119.436 318.375 140.389 332.787 161.256 L 383.61 161.256 C 379.023 154.998 373.899 149.138 368.377 143.616 C 361.186 136.425 353.456 130.054 344.99 124.42 C 336.638 118.785 327.549 113.887 317.752 109.696 C 317.639 109.583 317.554 109.583 317.441 109.498 C 307.956 105.534 298.131 102.391 287.91 100.41 C 283.747 99.56 279.557 98.937 275.395 98.428 L 275.395 98.343 L 275.395 98.343 Z  M 393.52 176.489 L 342.583 176.489 C 356.684 200.584 364.612 224.48 366.367 248.292 L 414.472 248.292 C 414.047 239.94 413.113 231.899 411.556 223.971 C 409.461 213.636 406.431 203.726 402.269 194.128 C 399.664 187.984 396.748 182.123 393.52 176.489 L 393.52 176.489 L 393.52 176.489 Z  M 263.588 108.252 L 263.588 161.256 L 314.1 161.256 C 300.849 143.73 284.031 126.09 263.588 108.252 L 263.588 108.252 Z  M 263.588 176.489 L 263.588 248.292 L 351.134 248.292 C 349.152 224.707 340.375 200.81 324.746 176.489 L 263.588 176.489 L 263.588 176.489 Z  M 248.355 248.292 L 248.355 176.489 L 187.198 176.489 C 171.54 200.81 162.791 224.707 160.809 248.292 L 248.355 248.292 L 248.355 248.292 Z  M 248.355 161.256 L 248.355 108.252 C 227.913 126.09 211.094 143.73 197.844 161.256 L 248.355 161.256 L 248.355 161.256 Z " fill="rgb(255,255,255)"/></g><g><path d=" M 82.182 248.418 C 82.069 250.966 82.012 253.515 82.012 256.091 C 82.012 268.096 83.173 279.677 85.466 291.059 C 87.646 302.214 90.987 312.974 95.489 323.506 C 95.489 323.62 95.603 323.818 95.687 323.931 C 100.161 334.464 105.597 344.289 111.77 353.576 C 117.914 362.862 125.021 371.413 132.863 379.256 C 140.678 387.184 149.257 394.178 158.544 400.322 C 167.831 406.579 177.741 411.902 188.189 416.404 C 198.835 420.991 209.792 424.332 221.061 426.625 C 232.273 428.89 243.967 430.051 255.972 430.051 C 267.977 430.051 279.557 428.89 290.939 426.597 C 302.095 424.417 312.854 421.076 323.387 416.574 C 323.5 416.574 323.698 416.46 323.811 416.375 C 334.259 411.902 344.169 406.466 353.456 400.293 C 362.743 394.149 371.294 387.042 379.137 379.228 C 387.064 371.413 394.058 362.834 400.23 353.547 C 406.488 344.26 411.811 334.351 416.313 323.903 C 420.899 313.257 424.24 302.299 426.534 291.03 C 428.827 279.762 429.988 268.068 429.988 256.063 C 429.988 253.486 429.931 250.938 429.818 248.39 C 314.241 248.418 197.985 248.418 82.182 248.418 L 82.182 248.418 Z  M 97.443 263.708 L 145.548 263.708 C 147.332 287.491 155.26 311.388 169.332 335.511 L 118.423 335.511 C 115.196 329.877 112.279 324.044 109.646 317.872 C 109.533 317.759 109.533 317.674 109.448 317.56 C 105.484 308.075 102.341 298.25 100.359 288.029 C 98.802 280.101 97.783 272.06 97.443 263.708 L 97.443 263.708 Z  M 128.333 350.744 L 179.156 350.744 C 193.653 371.611 212.765 392.592 236.548 413.657 C 232.273 413.148 228.083 412.497 224.034 411.675 C 213.699 409.58 203.789 406.551 194.191 402.388 C 184.479 398.226 175.419 393.3 166.953 387.665 C 158.487 382.031 150.786 375.66 143.566 368.469 C 138.045 362.947 132.92 357.086 128.333 350.829 L 128.333 350.744 L 128.333 350.744 Z  M 275.395 413.657 C 299.292 392.564 318.375 371.611 332.787 350.744 L 383.61 350.744 C 379.023 357.002 373.898 362.862 368.377 368.384 C 361.186 375.575 353.456 381.946 344.99 387.58 C 336.638 393.215 327.549 398.113 317.752 402.304 C 317.639 402.417 317.554 402.417 317.441 402.502 C 307.956 406.466 298.131 409.609 287.91 411.59 C 283.747 412.44 279.557 413.063 275.395 413.572 L 275.395 413.657 L 275.395 413.657 Z  M 393.52 335.511 L 342.583 335.511 C 356.684 311.416 364.612 287.52 366.367 263.708 L 414.472 263.708 C 414.047 272.06 413.113 280.101 411.556 288.029 C 409.461 298.364 406.431 308.274 402.269 317.872 C 399.664 324.016 396.748 329.877 393.52 335.511 L 393.52 335.511 L 393.52 335.511 Z  M 263.588 403.748 L 263.588 350.744 L 314.1 350.744 C 300.849 368.27 284.031 385.91 263.588 403.748 L 263.588 403.748 Z  M 263.588 335.511 L 263.588 263.708 L 351.134 263.708 C 349.152 287.293 340.375 311.19 324.746 335.511 L 263.588 335.511 L 263.588 335.511 Z  M 248.355 263.708 L 248.355 335.511 L 187.198 335.511 C 171.54 311.19 162.791 287.293 160.809 263.708 L 248.355 263.708 L 248.355 263.708 Z  M 248.355 350.744 L 248.355 403.748 C 227.913 385.91 211.094 368.27 197.844 350.744 L 248.355 350.744 L 248.355 350.744 Z " fill="rgb(255,255,255)"/></g></g></svg>